<?xml version="1.0" encoding="utf-8"?>
<!-- Generator: Adobe Illustrator 17.0.0, SVG Export Plug-In . SVG Version: 6.00 Build 0)  -->
<!DOCTYPE svg PUBLIC "-//W3C//DTD SVG 1.1//EN" "http://www.w3.org/Graphics/SVG/1.1/DTD/svg11.dtd">
<svg version="1.1" id="Layer_1" xmlns="http://www.w3.org/2000/svg" xmlns:xlink="http://www.w3.org/1999/xlink" x="0px" y="0px"
	 width="1045.57px" height="646.835px" viewBox="0 0 1045.57 646.835" enable-background="new 0 0 1045.57 646.835"
	 xml:space="preserve">
<path fill-rule="evenodd" clip-rule="evenodd" fill="#6E6E6E" d="M908.44,512.882h12.717v-37.115h62.034
	c2.898-0.023,5.494,0.129,7.785,0.519c2.316,0.366,4.262,1.102,5.883,2.225c1.624,1.105,2.877,2.772,3.722,4.977
	c0.865,2.205,1.296,5.125,1.296,8.76v20.634h11.941v-24.007c0.021-2.141-0.216-4.177-0.694-6.036
	c-0.474-1.881-1.298-3.59-2.487-5.127c-1.189-1.535-2.811-2.854-4.909-3.956c-2.121-1.104-4.781-1.948-8.004-2.531v-0.26
	c2.444-0.219,4.714-0.649,6.815-1.298c2.075-0.672,3.913-1.644,5.471-2.963c1.558-1.319,2.768-3.093,3.656-5.278
	c0.863-2.207,1.298-4.954,1.319-8.241v-7.655c0.023-3.526-0.194-6.708-0.67-9.539c-0.456-2.833-1.321-5.323-2.574-7.464
	c-1.255-2.118-3.05-3.893-5.387-5.319c-2.337-1.429-5.364-2.489-9.084-3.202c-3.721-0.736-8.284-1.082-13.691-1.082H908.44V512.882
	L908.44,512.882z M921.158,465.385v-36.079h57.882c4.651-0.021,8.478,0.218,11.507,0.692c3.05,0.476,5.407,1.232,7.116,2.314
	c1.708,1.059,2.92,2.49,3.61,4.285c0.695,1.772,1.018,3.979,0.995,6.596v8.565c0.023,3.266-0.67,5.906-2.075,7.918
	c-1.385,2.011-3.569,3.46-6.533,4.368s-6.792,1.362-11.507,1.342H921.158z"/>
<path fill-rule="evenodd" clip-rule="evenodd" fill="#6E6E6E" d="M765.687,478.752c-0.023,5.925,0.519,11.095,1.665,15.507
	c1.125,4.412,2.963,8.067,5.537,10.988c2.573,2.897,6.013,5.082,10.316,6.51c4.307,1.45,9.627,2.161,15.962,2.161h54.12
	c6.336,0,11.657-0.711,15.962-2.161c4.303-1.428,7.742-3.613,10.316-6.51c2.574-2.92,4.432-6.576,5.558-10.988
	c1.125-4.412,1.667-9.582,1.644-15.507v-25.697c0.023-5.927-0.519-11.118-1.644-15.507c-1.125-4.414-2.984-8.069-5.558-10.99
	c-2.574-2.897-6.013-5.082-10.316-6.51c-4.305-1.448-9.626-2.161-15.962-2.161h-54.12c-6.335,0-11.656,0.713-15.962,2.161
	c-4.303,1.428-7.742,3.613-10.316,6.51c-2.574,2.92-4.412,6.576-5.537,10.99c-1.146,4.39-1.687,9.58-1.665,15.507V478.752
	L765.687,478.752z M874.049,483.552c-0.021,4.066-0.583,7.398-1.729,10.015c-1.125,2.617-2.704,4.651-4.714,6.12
	c-2.012,1.451-4.369,2.467-7.009,3.029c-2.66,0.563-5.537,0.843-8.607,0.822h-51.523c-3.071,0.02-5.925-0.26-8.585-0.822
	c-2.662-0.563-4.997-1.578-7.029-3.029c-2.012-1.469-3.57-3.503-4.715-6.12c-1.125-2.617-1.711-5.949-1.731-10.015v-35.299
	c0.02-4.066,0.606-7.398,1.731-10.015c1.146-2.617,2.704-4.651,4.715-6.12c2.032-1.451,4.367-2.467,7.029-3.029
	c2.66-0.583,5.514-0.843,8.585-0.82h51.523c3.07-0.023,5.947,0.237,8.607,0.82c2.64,0.563,4.997,1.578,7.009,3.029
	c2.011,1.469,3.59,3.503,4.714,6.12c1.146,2.617,1.708,5.949,1.729,10.015V483.552z"/>
<polygon fill-rule="evenodd" clip-rule="evenodd" fill="#6E6E6E" points="693.272,512.882 705.992,512.882 705.992,429.305 
	753.489,429.305 753.489,418.923 645.775,418.923 645.775,429.305 693.272,429.305 "/>
<path fill-rule="evenodd" clip-rule="evenodd" fill="#6E6E6E" d="M522.227,478.752c-0.023,5.925,0.519,11.095,1.665,15.507
	c1.125,4.412,2.964,8.067,5.537,10.988c2.576,2.897,6.014,5.082,10.318,6.51c4.305,1.45,9.626,2.161,15.96,2.161h48.019
	c5.255,0,9.733-0.366,13.432-1.101c3.697-0.715,6.749-1.796,9.148-3.225c2.403-1.426,4.262-3.2,5.603-5.319
	c1.362-2.1,2.294-4.544,2.834-7.311c0.539-2.77,0.799-5.863,0.779-9.257v-6.359h-11.94v5.84c0.021,3.157-0.324,5.797-1.038,7.915
	c-0.713,2.121-1.905,3.785-3.567,5.041c-1.667,1.232-3.918,2.097-6.772,2.637c-2.854,0.519-6.423,0.779-10.685,0.758h-44.514
	c-3.07,0.02-5.924-0.26-8.585-0.822c-2.662-0.563-4.997-1.578-7.029-3.029c-2.011-1.469-3.569-3.503-4.715-6.12
	c-1.125-2.617-1.711-5.949-1.732-10.015v-35.299c0.021-4.066,0.606-7.398,1.732-10.015c1.146-2.617,2.704-4.651,4.715-6.12
	c2.032-1.451,4.367-2.467,7.029-3.029c2.661-0.583,5.515-0.843,8.585-0.82h44.125c2.358-0.023,4.585,0.041,6.726,0.193
	c2.141,0.173,4.111,0.542,5.906,1.105c1.795,0.562,3.373,1.447,4.694,2.658c1.34,1.192,2.358,2.834,3.093,4.911
	c0.736,2.076,1.123,4.695,1.123,7.872v4.284h11.161v-8.047c0.023-3.18-0.433-6.164-1.362-8.954
	c-0.931-2.813-2.488-5.298-4.694-7.439c-2.228-2.166-5.234-3.852-9.041-5.086c-3.829-1.232-8.61-1.859-14.362-1.879h-48.669
	c-6.334,0-11.655,0.713-15.96,2.161c-4.304,1.428-7.742,3.613-10.318,6.51c-2.574,2.92-4.412,6.576-5.537,10.99
	c-1.146,4.39-1.687,9.58-1.665,15.507V478.752z"/>
<path fill-rule="evenodd" clip-rule="evenodd" fill="#6E6E6E" d="M382.847,512.882h14.407l11.678-19.855h75.27l11.68,19.855h14.404
	l-55.802-93.959h-15.833L382.847,512.882L382.847,512.882z M478.104,482.645h-63.073l31.538-53.34L478.104,482.645z"/>
<polygon fill-rule="evenodd" clip-rule="evenodd" fill="#6E6E6E" points="291.616,512.882 304.333,512.882 304.333,469.666 
	378.176,469.666 378.176,459.284 304.333,459.284 304.333,429.305 381.159,429.305 381.159,418.923 291.616,418.923 "/>
<polygon fill-rule="evenodd" clip-rule="evenodd" fill="#009DE2" points="138.868,512.882 177.54,512.882 208.558,478.752 
	239.574,512.882 278.248,512.882 232.176,465.773 275.002,418.923 237.759,418.923 208.558,451.757 179.36,418.923 142.112,418.923 
	184.938,465.773 "/>
<polygon fill-rule="evenodd" clip-rule="evenodd" fill="#009DE2" points="25.835,512.882 130.303,512.882 130.303,490.3 
	54.643,490.3 54.643,475.247 124.723,475.247 124.723,455.781 54.643,455.781 54.643,440.725 128.615,440.725 128.615,418.923 
	25.835,418.923 "/>
<polygon fill-rule="evenodd" clip-rule="evenodd" fill="#6E6E6E" points="855.791,304.422 855.791,356.824 858.593,356.824 
	858.593,340.871 863.504,335.96 863.504,316.687 874.775,316.687 874.775,344.431 881.946,344.431 881.946,336.51 892.678,330.313 
	896.562,331.354 896.562,349.21 897.98,349.21 897.98,341.6 904.026,338.109 904.026,349.074 914.528,348.932 919.941,348.932 
	919.941,339.209 926.408,339.209 932.823,345.622 932.823,355.112 936.666,355.112 936.666,345.814 941.594,345.814 
	941.594,354.552 960.857,354.552 960.857,322.041 964.738,315.321 970.78,321.363 970.78,332.462 975.76,335.339 975.76,348.353 
	982.633,348.328 982.633,337.919 999.966,337.921 1002.342,342.037 1002.342,347.135 1005.813,347.137 1005.813,333.165 
	1010.066,328.912 1014.733,334.993 1014.733,373.121 291.532,372.837 291.532,297.315 330.986,297.315 330.986,323.815 
	335.211,323.815 335.211,304.622 365.65,304.622 365.65,324.667 368.744,324.667 368.744,305.767 372.405,303.653 392.419,303.653 
	392.419,309.431 408.007,313.609 408.007,344.283 419.59,337.595 419.59,286.18 421.346,283.136 421.346,258.609 423.411,256.545 
	423.411,238.353 429.136,238.353 429.136,224.979 441.648,203.301 453.409,223.672 453.409,241.73 458.113,241.73 458.113,187.346 
	472.571,172.885 477.101,172.885 504.292,145.695 504.292,128.058 506.868,125.481 506.868,95.29 510.44,95.29 510.44,191.926 
	503.54,191.926 503.54,222.466 510.297,222.466 510.297,275.771 516.911,275.771 516.911,298.005 523.941,293.945 528.735,293.945 
	528.735,159.793 533.378,155.153 533.378,122.162 530.271,122.162 530.271,105.699 528.092,103.521 528.092,19.051 532.241,23.199 
	532.241,48.874 534.563,51.196 534.563,72.366 585.313,123.116 585.313,290.551 588.806,294.044 588.806,349.482 592.362,343.323 
	592.362,300.385 593.613,298.217 593.613,290.392 599.973,286.72 609.805,297.152 609.805,325.147 612.098,327.44 626.772,327.44 
	629.903,322.761 639.586,317.168 639.586,329.367 649.842,329.367 649.842,335.276 647.31,335.276 647.31,340.763 650.825,340.763 
	650.825,356.798 671.223,356.798 671.223,329.645 678.361,333.767 678.361,356.235 681.658,354.331 692.183,354.331 
	692.183,312.344 698.8,312.344 698.8,354.976 703.716,354.976 716.841,354.933 716.841,319.358 721.612,314.588 729.791,314.567 
	729.791,305.589 733.682,305.589 733.682,318.964 737.055,318.964 742.124,316.036 747.684,319.247 753.219,313.712 
	758.382,318.872 758.382,345.829 762.52,345.829 762.52,341.456 778.416,341.431 778.437,350.02 783.197,350.02 811.955,350.028 
	811.955,305.728 815.581,302.101 815.581,292.367 817.176,289.603 817.176,269.861 815.194,268.715 815.194,262.389 
	825.677,262.389 825.677,295.886 829.706,302.864 830.719,304.453 846.171,304.422 "/>
<polygon fill-rule="evenodd" clip-rule="evenodd" fill="#009DE2" points="588.806,353.461 528.737,293.391 528.737,293.945 
	528.737,159.793 533.378,155.153 533.378,122.16 530.271,122.16 530.271,105.699 528.737,104.163 528.737,19.696 532.241,23.199 
	532.241,48.876 534.563,51.196 534.563,72.366 585.313,123.116 585.313,290.551 588.806,294.044 588.806,324.957 "/>
<g>
	<path fill-rule="evenodd" clip-rule="evenodd" fill="#6E6E6E" d="M332.332,593.991h-20.457v3.489h16.183v3.186
		c-0.008,1.446-0.284,2.594-0.837,3.452c-0.552,0.859-1.337,1.475-2.37,1.846c-1.024,0.372-2.252,0.555-3.684,0.547h-16.706
		c-1.033,0.008-1.993-0.086-2.888-0.276c-0.894-0.19-1.679-0.532-2.361-1.018c-0.678-0.494-1.202-1.176-1.587-2.057
		c-0.377-0.88-0.573-2.001-0.581-3.367v-11.864c0.008-1.367,0.204-2.488,0.581-3.367c0.385-0.878,0.909-1.57,1.587-2.057
		c0.682-0.486,1.467-0.829,2.361-1.018c0.895-0.196,1.855-0.283,2.888-0.276h11.078c2.102-0.007,3.882,0.023,5.335,0.095
		c1.463,0.066,2.648,0.21,3.571,0.437c0.923,0.225,1.634,0.567,2.137,1.024c0.494,0.457,0.843,1.076,1.032,1.846
		c0.188,0.779,0.282,1.751,0.268,2.922h4.014v-1.133c-0.008-1.455-0.233-2.683-0.676-3.701c-0.445-1.018-1.047-1.852-1.817-2.499
		c-0.779-0.656-1.659-1.165-2.662-1.521c-0.995-0.363-2.057-0.616-3.175-0.755c-1.128-0.146-2.261-0.212-3.402-0.204h-16.14
		c-2.131,0-3.92,0.238-5.367,0.727c-1.447,0.478-2.603,1.214-3.466,2.187c-0.865,0.983-1.484,2.211-1.86,3.695
		c-0.385,1.476-0.569,3.219-0.561,5.212v8.637c-0.009,1.993,0.175,3.73,0.561,5.214c0.377,1.482,0.995,2.709,1.86,3.692
		c0.864,0.973,2.02,1.708,3.466,2.189c1.447,0.486,3.236,0.726,5.367,0.726h17.621c1.97,0.008,3.635-0.196,5.003-0.61
		c1.367-0.414,2.463-1.076,3.3-1.993c0.836-0.909,1.446-2.108,1.825-3.599c0.377-1.49,0.567-3.301,0.558-5.444V593.991
		L332.332,593.991z M523.575,609.651h4.274v-12.476H548.7c0.975-0.007,1.846,0.043,2.617,0.175c0.779,0.124,1.432,0.371,1.978,0.748
		c0.544,0.371,0.967,0.931,1.251,1.673c0.29,0.742,0.435,1.723,0.435,2.943v6.937h4.014v-8.07c0.006-0.719-0.074-1.403-0.233-2.028
		c-0.161-0.633-0.437-1.208-0.836-1.723c-0.4-0.517-0.947-0.96-1.651-1.331c-0.713-0.371-1.605-0.654-2.689-0.851v-0.087
		c0.822-0.072,1.585-0.218,2.289-0.437c0.699-0.225,1.317-0.552,1.84-0.995c0.523-0.443,0.93-1.039,1.229-1.775
		c0.291-0.742,0.437-1.665,0.443-2.769v-2.574c0.009-1.185-0.065-2.252-0.225-3.205c-0.152-0.954-0.443-1.788-0.865-2.51
		c-0.422-0.711-1.024-1.309-1.809-1.787c-0.785-0.48-1.803-0.837-3.054-1.077c-1.251-0.246-2.784-0.363-4.602-0.363h-25.256V609.651
		L523.575,609.651z M527.849,593.686v-12.128h19.456c1.562-0.007,2.85,0.074,3.868,0.233c1.024,0.161,1.818,0.414,2.391,0.779
		c0.574,0.356,0.983,0.836,1.213,1.438c0.233,0.598,0.342,1.338,0.336,2.217v2.879c0.007,1.098-0.227,1.985-0.699,2.663
		c-0.465,0.675-1.199,1.162-2.195,1.467c-0.997,0.305-2.283,0.457-3.868,0.451H527.849L527.849,593.686z M750.847,601.713
		c0,1.599,0.204,2.928,0.633,3.998c0.422,1.069,1.084,1.919,1.984,2.551c0.903,0.627,2.065,1.076,3.489,1.346
		c1.433,0.268,3.149,0.4,5.148,0.392h14.569c2.007,0.008,3.716-0.124,5.148-0.392c1.424-0.27,2.589-0.719,3.489-1.346
		c0.901-0.632,1.562-1.482,1.985-2.551c0.429-1.069,0.641-2.399,0.632-3.998V578.07h-4.274v23.597
		c0.015,0.765-0.074,1.447-0.255,2.044c-0.175,0.604-0.509,1.105-0.995,1.527c-0.481,0.414-1.179,0.725-2.079,0.944
		c-0.903,0.218-2.08,0.328-3.52,0.328h-14.829c-1.441,0-2.611-0.11-3.52-0.328c-0.9-0.219-1.599-0.53-2.079-0.944
		c-0.486-0.422-0.814-0.923-0.995-1.527c-0.181-0.598-0.262-1.279-0.256-2.044V578.07h-4.274V601.713L750.847,601.713z
		 M980.258,609.651h4.274v-12.433h20.893c1.847,0,3.382-0.144,4.595-0.42c1.214-0.284,2.18-0.705,2.893-1.274
		c0.713-0.566,1.237-1.263,1.578-2.114c0.34-0.843,0.559-1.826,0.662-2.951c0.093-1.128,0.145-2.393,0.13-3.796
		c0-1.469-0.13-2.712-0.385-3.721c-0.254-1.018-0.633-1.847-1.133-2.488c-0.503-0.638-1.113-1.133-1.847-1.482
		c-0.728-0.35-1.564-0.589-2.516-0.713c-0.946-0.132-1.993-0.196-3.147-0.189h-25.998V609.651L980.258,609.651z M1011.01,589.237
		c0,1.082-0.219,1.956-0.647,2.617c-0.422,0.661-1.041,1.141-1.847,1.438c-0.808,0.299-1.775,0.445-2.916,0.437h-21.069v-12.17
		h20.72c1.234-0.015,2.289,0.109,3.141,0.379c0.857,0.262,1.504,0.734,1.948,1.41c0.443,0.684,0.669,1.636,0.669,2.879V589.237z"/>
	<rect x="25.835" y="544.181" fill-rule="evenodd" clip-rule="evenodd" fill="#6E6E6E" width="989.667" height="2.061"/>
</g>
</svg>
