<svg width="40" height="42" viewBox="0 0 40 42" fill="none" xmlns="http://www.w3.org/2000/svg">
<path d="M40 21.0599C40 32.3231 31.0444 41.4562 20 41.4562C8.95557 41.4562 1.15344e-06 32.3231 2.10021e-06 21.0599C3.0471e-06 9.79524 8.95491 0.663571 20 0.663572C31.0451 0.663573 40 9.79524 40 21.0599ZM37 21.0599C37 11.485 29.3883 3.72302 20 3.72302C10.6117 3.72302 3 11.485 3 21.0599C3 30.6335 10.6124 38.3967 20 38.3967C29.3876 38.3967 37 30.6335 37 21.0599ZM24.0924 29.0465L23.9475 29.2184C23.4162 29.7626 22.5829 29.8138 21.9948 29.3708L21.8262 29.223L14.8542 22.1435C14.3189 21.5999 14.2703 20.747 14.7082 20.1472L14.8542 19.9755L21.8262 12.8959C22.4133 12.2998 23.363 12.3019 23.9475 12.9006C24.4789 13.4448 24.5255 14.2948 24.0886 14.8927L23.943 15.0639L18.04 21.0574L23.943 27.055C24.4766 27.5969 24.5269 28.4467 24.0924 29.0465Z" fill="#2F2F2F"/>
</svg>
