<svg width="40" height="42" viewBox="0 0 40 42" fill="none" xmlns="http://www.w3.org/2000/svg">
<path d="M0 21.0598C0 9.79648 8.95557 0.663452 20 0.663452C31.0444 0.663452 40 9.79648 40 21.0598C40 32.3244 31.0451 41.4561 20 41.4561C8.95491 41.4561 0 32.3244 0 21.0598ZM3 21.0598C3 30.6347 10.6117 38.3966 20 38.3966C29.3883 38.3966 37 30.6347 37 21.0598C37 11.4862 29.3876 3.7229 20 3.7229C10.6124 3.7229 3 11.4862 3 21.0598ZM15.9076 13.0732L16.0525 12.9013C16.5838 12.357 17.4171 12.3058 18.0052 12.7489L18.1738 12.8966L25.1458 19.9762C25.6811 20.5197 25.7297 21.3726 25.2918 21.9724L25.1458 22.1442L18.1738 29.2237C17.5867 29.8198 16.637 29.8177 16.0525 29.2191C15.5211 28.6748 15.4745 27.8249 15.9114 27.227L16.057 27.0557L21.96 21.0622L16.057 15.0646C15.5233 14.5227 15.4731 13.673 15.9076 13.0732Z" fill="#2F2F2F"/>
</svg>
