<svg width="264" height="42" viewBox="0 0 264 42" fill="none" xmlns="http://www.w3.org/2000/svg">
<path d="M52.9338 0.0553481C57.5392 0.0461234 62.1445 0.00922469 66.7499 0C68.0526 3.98506 69.3553 7.97013 70.6488 11.9552C66.0343 11.9552 61.429 11.9552 56.8144 11.9552C55.5209 7.98858 54.2274 4.02196 52.9338 0.0553481Z" fill="#20407C"/>
<path d="M103.951 11.6139C103.813 10.2671 104.804 8.91104 106.152 8.70809C107.51 8.57895 108.886 8.68042 110.253 8.65275C111.042 10.6914 111.813 12.7301 112.602 14.7687C113.381 12.7301 114.161 10.6914 114.941 8.65275C116.234 8.6712 117.528 8.60662 118.831 8.68042C120.152 8.76344 121.271 9.99033 121.253 11.3279C121.271 18.6615 121.253 25.9952 121.262 33.338C119.675 33.338 118.097 33.338 116.519 33.338C116.519 28.0707 116.519 22.7942 116.519 17.5269C116.069 18.68 115.62 19.8331 115.179 20.9954C113.455 20.9954 111.739 20.9954 110.033 20.9954C109.574 19.8238 109.115 18.6523 108.684 17.4808C108.703 22.7665 108.684 28.0523 108.693 33.338C107.116 33.338 105.528 33.338 103.951 33.338C103.951 26.0874 103.951 18.8553 103.951 11.6139Z" fill="#20407C"/>
<path d="M127.005 9.42758C127.95 8.65271 129.206 8.60658 130.372 8.65271C134.078 8.67116 137.775 8.65271 141.481 8.66193C141.481 10.2578 141.481 11.8537 141.481 13.4588C137.747 13.4588 134.014 13.4588 130.28 13.4588C130.28 15.1746 130.28 16.8996 130.28 18.6154C133.362 18.6154 136.445 18.6154 139.527 18.6154C139.041 20.0636 138.564 21.5211 138.087 22.9694C135.481 22.9602 132.885 22.9694 130.28 22.9694C130.28 24.8328 130.28 26.687 130.28 28.5504C134.014 28.5504 137.747 28.5504 141.481 28.5504C141.481 30.1462 141.481 31.7421 141.481 33.3472C137.39 33.338 133.298 33.3564 129.206 33.338C127.262 33.3472 125.427 31.6314 125.537 29.6389C125.528 24.141 125.546 18.643 125.528 13.1544C125.39 11.7522 125.812 10.2394 127.005 9.42758Z" fill="#20407C"/>
<path d="M143.757 8.66199C149.958 8.66199 156.169 8.66199 162.38 8.66199C161.894 10.2579 161.417 11.8537 160.939 13.4496C159.16 13.4496 157.389 13.4496 155.609 13.4496C155.609 20.0729 155.609 26.7055 155.609 33.3288C154.022 33.3288 152.426 33.3288 150.839 33.3288C150.839 26.6963 150.839 20.0729 150.839 13.4496C148.958 13.4496 147.078 13.4496 145.197 13.4496C144.72 11.8537 144.234 10.2579 143.757 8.66199Z" fill="#20407C"/>
<path d="M169.168 8.66194C170.994 8.65271 172.82 8.66194 174.654 8.66194C176.847 15.6543 179.049 22.6466 181.241 29.6389C181.883 31.2071 180.746 33.1812 179.049 33.3103C176.333 33.3841 173.609 33.3195 170.893 33.338C171.37 31.7421 171.856 30.137 172.333 28.5504C173.535 28.5504 174.728 28.5504 175.93 28.5504C174.581 23.9749 173.232 19.3995 171.865 14.8333C169.939 21.0046 168.012 27.1759 166.086 33.3472C164.398 33.3472 162.71 33.3472 161.031 33.3472C163.747 25.1096 166.462 16.8904 169.168 8.66194Z" fill="#20407C"/>
<path d="M182.498 8.66199C184.085 8.66199 185.672 8.66199 187.259 8.66199C187.259 15.2945 187.259 21.9179 187.259 28.5412C189.984 28.5412 192.7 28.5412 195.424 28.5412C195.901 30.1371 196.388 31.7329 196.865 33.338C193.388 33.338 189.911 33.338 186.443 33.338C184.507 33.4948 182.553 31.9359 182.517 29.9341C182.471 22.8403 182.517 15.7465 182.498 8.66199Z" fill="#20407C"/>
<path d="M199.158 8.66199C200.736 8.66199 202.323 8.66199 203.901 8.66199C203.901 10.6545 203.901 12.6471 203.901 14.6396C202.314 14.6396 200.736 14.6396 199.158 14.6396C199.158 12.6471 199.158 10.6545 199.158 8.66199Z" fill="#20407C"/>
<path d="M208.277 10.885C208.204 9.75039 209.167 8.68032 210.295 8.6711C211.516 8.61575 212.745 8.6711 213.974 8.65265C216.038 13.2189 218.093 17.7943 220.157 22.3513C220.157 17.7851 220.157 13.2189 220.157 8.65265C221.735 8.65265 223.322 8.65265 224.9 8.65265C224.9 16.8811 224.9 25.1003 224.9 33.3287C223.313 33.3287 221.726 33.3287 220.148 33.3287C217.772 28.0245 215.387 22.7203 213.002 17.4161C213.002 22.7203 213.002 28.0245 213.002 33.3287C211.424 33.3287 209.837 33.3287 208.259 33.3287C208.277 25.8567 208.259 18.3662 208.277 10.885Z" fill="#20407C"/>
<path d="M231.643 8.89252C232.414 8.5881 233.267 8.6619 234.084 8.65267C236.588 8.68035 239.093 8.63422 241.588 8.67112C243.487 8.72647 245.239 10.433 245.12 12.3794C245.12 18.1264 245.12 23.8734 245.12 29.6204C245.203 31.5576 243.46 33.2549 241.57 33.3103C238.689 33.3379 235.808 33.3287 232.928 33.3195C230.955 33.3656 229.084 31.6314 229.176 29.6019C229.166 23.855 229.157 18.108 229.176 12.361C229.139 10.8297 230.221 9.4091 231.643 8.89252ZM233.955 13.4495C233.955 18.477 233.955 23.5136 233.955 28.5411C236.093 28.5411 238.24 28.5411 240.395 28.5411C240.395 23.5136 240.395 18.477 240.395 13.4495C238.24 13.4495 236.093 13.4495 233.955 13.4495Z" fill="#20407C"/>
<path d="M249.423 8.66199C251.101 8.66199 252.789 8.66199 254.468 8.66199C255.239 10.673 256 12.6747 256.78 14.6857C257.532 12.6747 258.285 10.6637 259.046 8.66199C260.697 8.66199 262.349 8.66199 264 8.66199C262.431 12.8684 260.89 17.0841 259.312 21.2906C260.844 25.3033 262.395 29.3161 263.927 33.338C262.275 33.338 260.624 33.338 258.973 33.338C258.22 31.4101 257.477 29.4729 256.734 27.5541C256.083 29.0947 255.679 30.7551 254.89 32.2311C253.661 33.9376 251.331 33.1812 249.569 33.338C251.111 29.2238 252.661 25.1096 254.202 20.9954C252.597 16.872 251.01 12.767 249.423 8.66199Z" fill="#20407C"/>
<path d="M199.158 16.5582C200.736 16.5582 202.323 16.5582 203.901 16.5582C203.901 22.1484 203.901 27.7385 203.901 33.3379C202.314 33.3379 200.736 33.3379 199.158 33.3379C199.158 27.7385 199.158 22.1484 199.158 16.5582Z" fill="#20407C"/>
<path d="M14.6784 0.0553481C19.2837 0.0461234 23.8799 0.00922469 28.4853 0C33.0539 13.9846 37.6134 27.96 42.1729 41.9447C37.5675 41.9539 32.9622 41.9908 28.3568 42C25.8982 34.445 23.412 26.8992 20.9718 19.3349C18.6049 26.8992 16.1921 34.445 13.8069 42C9.21069 41.9908 4.60534 41.9631 0 41.9447C2.51367 34.0022 5.02735 26.0505 7.5502 18.1081C11.8987 18.1265 16.238 18.1357 20.5864 18.1634C18.614 12.1305 16.6416 6.08829 14.6784 0.0553481Z" fill="#20407C"/>
<path d="M33.9897 0.0553481C38.5951 0.0461234 43.2004 0.00922469 47.8058 0C52.3653 13.9846 56.9339 27.96 61.4934 41.9447C56.888 41.9631 52.2827 41.9908 47.6865 42C43.1087 28.0154 38.5492 14.04 33.9897 0.0553481Z" fill="#20407C"/>
<path d="M59.6035 20.5065C64.218 20.5065 68.8325 20.4972 73.4471 20.5157C75.7773 27.6556 78.1166 34.8047 80.4377 41.9446C75.8323 41.9539 71.227 41.9908 66.6308 42C64.2822 34.8416 61.9612 27.6648 59.6035 20.5065Z" fill="#20407C"/>
</svg>
