<svg width="11" height="10" viewBox="0 0 11 10" fill="none" xmlns="http://www.w3.org/2000/svg">
<path d="M5.35504 4.06047V6.00524H7.99993C7.61098 7.05542 6.5997 7.75553 5.43283 7.75553C3.91591 7.75553 2.71015 6.54978 2.71015 5.03285C2.71015 3.51593 3.91591 2.31017 5.43283 2.31017C6.01626 2.31017 6.5608 2.50465 7.02755 2.81581L7.18313 2.9325L8.34999 1.41558L8.19441 1.29889C7.37761 0.71546 6.44411 0.404297 5.43283 0.404297C2.86573 0.404297 0.765381 2.50465 0.765381 5.07175C0.765381 7.63885 2.86573 9.7392 5.43283 9.7392C7.99993 9.7392 10.1003 7.63885 10.1003 5.07175V4.09936H5.35504V4.06047Z" fill="white"/>
</svg>
