<svg width="12" height="13" viewBox="0 0 12 13" fill="none" xmlns="http://www.w3.org/2000/svg">
<path d="M8.8473 1.1813C6.97466 0.823682 5.03 0.823682 3.15736 1.1813C2.32907 1.36011 1.28472 2.36144 1.10466 3.1482C0.780545 4.68595 0.780545 6.25947 1.10466 7.79723C1.32073 8.58399 2.36509 9.58532 3.15736 9.76412C3.19337 9.76412 3.22938 9.79989 3.22938 9.83565V12.0886C3.22938 12.1959 3.37343 12.2674 3.44546 12.1602L4.52583 11.0515C4.52583 11.0515 5.39012 10.1575 5.53417 10.0145C5.53417 10.0145 5.57018 9.9787 5.60619 9.9787C6.68656 10.0145 7.80295 9.90717 8.88332 9.72836C9.7116 9.54955 10.756 8.54822 10.936 7.76147C11.2601 6.22371 11.2601 4.65019 10.936 3.11243C10.7199 2.36144 9.67559 1.36011 8.8473 1.1813ZM8.88332 7.90451C8.70325 8.26213 8.48718 8.54822 8.12706 8.72703C8.01902 8.7628 7.91098 8.79856 7.80295 8.83432C7.6589 8.79856 7.55086 8.7628 7.44282 8.72703C6.29043 8.26213 5.21006 7.61842 4.34576 6.68861C3.8776 6.15219 3.48147 5.54424 3.15736 4.90052C3.01331 4.57867 2.86926 4.29257 2.76122 3.97072C2.65318 3.68462 2.83324 3.39853 3.01331 3.18396C3.19337 2.96939 3.40944 2.82634 3.66153 2.71906C3.84159 2.61177 4.02165 2.68329 4.1657 2.82634C4.4538 3.18396 4.7419 3.54158 4.95797 3.93496C5.10202 4.18529 5.06601 4.47138 4.81392 4.65019C4.7419 4.68595 4.70589 4.72171 4.63386 4.79324C4.59785 4.829 4.52582 4.86476 4.48981 4.93629C4.41779 5.04357 4.41779 5.15086 4.4538 5.25814C4.7419 6.08066 5.28208 6.72437 6.11037 7.08199C6.25441 7.15351 6.36245 7.18928 6.54251 7.18928C6.7946 7.15352 6.90264 6.86742 7.0827 6.72437C7.26276 6.58133 7.47883 6.58133 7.69491 6.68861C7.87497 6.7959 8.05503 6.93894 8.2711 7.08199C8.45117 7.22504 8.63123 7.33232 8.81129 7.47537C8.91933 7.5469 8.95534 7.7257 8.88332 7.90451ZM7.3708 5.22238C7.29877 5.22238 7.33478 5.22238 7.3708 5.22238C7.22675 5.22238 7.19073 5.15086 7.15472 5.04357C7.15472 4.97205 7.15472 4.86476 7.11871 4.79324C7.0827 4.65019 7.01067 4.50714 6.86663 4.39986C6.7946 4.3641 6.72257 4.32833 6.65055 4.29257C6.54251 4.25681 6.47049 4.25681 6.36245 4.25681C6.25442 4.22105 6.2184 4.14953 6.2184 4.04224C6.2184 3.97072 6.32644 3.89919 6.39846 3.89919C6.97466 3.93496 7.40681 4.25681 7.47883 4.93629C7.47883 4.97205 7.47883 5.04357 7.47883 5.07933C7.47883 5.15086 7.44282 5.22238 7.3708 5.22238ZM7.01067 3.64886C6.83061 3.57734 6.65055 3.50581 6.43448 3.47005C6.36245 3.47005 6.25442 3.43429 6.18239 3.43429C6.07435 3.43429 6.00233 3.36277 6.03834 3.25548C6.03834 3.1482 6.11037 3.07667 6.2184 3.11243C6.57853 3.1482 6.90264 3.21972 7.22675 3.36277C7.87497 3.68462 8.23509 4.22105 8.34313 4.93629C8.34313 4.97205 8.34313 5.00781 8.34313 5.04357C8.34313 5.11509 8.34313 5.18662 8.34313 5.2939C8.34313 5.32966 8.34313 5.36543 8.34313 5.40119C8.30712 5.54424 8.05503 5.58 8.01902 5.40119C8.01902 5.36543 7.98301 5.2939 7.98301 5.25814C7.98301 4.93629 7.91098 4.61443 7.76693 4.32834C7.55086 4.00648 7.29877 3.79191 7.01067 3.64886ZM8.95534 5.79457C8.8473 5.79457 8.77528 5.68728 8.77528 5.58C8.77528 5.36543 8.73927 5.15086 8.70325 4.93629C8.5592 3.79191 7.62288 2.8621 6.5065 2.68329C6.32644 2.64753 6.14638 2.64753 6.00233 2.61177C5.89429 2.61177 5.75024 2.61177 5.71423 2.46872C5.67822 2.36144 5.78625 2.25415 5.89429 2.25415C5.9303 2.25415 5.96632 2.25415 5.96632 2.25415C7.44282 2.28991 6.03834 2.25415 5.96632 2.25415C7.47884 2.28991 8.73926 3.29124 8.99135 4.79324C9.02736 5.04357 9.06338 5.2939 9.06338 5.58C9.1354 5.68728 9.06338 5.79457 8.95534 5.79457Z" fill="white"/>
</svg>
