<svg width="11" height="11" viewBox="0 0 11 11" fill="none" xmlns="http://www.w3.org/2000/svg">
<path d="M9.44241 1.92651C8.47177 0.959246 7.17759 0.421875 5.8115 0.421875C2.97149 0.421875 0.670715 2.71466 0.670715 5.54481C0.670715 6.44043 0.922362 7.33605 1.35376 8.08837L0.634766 10.7394L3.36693 10.0229C4.12187 10.417 4.94871 10.6319 5.8115 10.6319C8.65152 10.6319 10.9523 8.33914 10.9523 5.50899C10.9163 4.18347 10.413 2.89378 9.44241 1.92651ZM8.29202 7.37187C8.18418 7.65847 7.68088 7.94507 7.42923 7.9809C7.21354 8.01672 6.92594 8.01672 6.63834 7.94507C6.4586 7.87342 6.20695 7.80177 5.91935 7.65847C4.62517 7.1211 3.79833 5.83141 3.72643 5.72394C3.65453 5.65229 3.18719 5.04327 3.18719 4.39842C3.18719 3.75358 3.51073 3.46698 3.61858 3.32368C3.72643 3.18038 3.87023 3.18038 3.97808 3.18038C4.04997 3.18038 4.15782 3.18038 4.22972 3.18038C4.30162 3.18038 4.40947 3.14456 4.51732 3.39533C4.62517 3.6461 4.87681 4.29095 4.91276 4.32677C4.94871 4.39842 4.94871 4.47007 4.91276 4.54172C4.87681 4.61337 4.84086 4.68502 4.76896 4.75667C4.69707 4.82832 4.62517 4.93579 4.58922 4.97162C4.51732 5.04327 4.44542 5.11492 4.51732 5.22239C4.58922 5.36569 4.84087 5.75976 5.23631 6.11801C5.7396 6.54791 6.13505 6.69121 6.27885 6.76286C6.42265 6.8345 6.49454 6.79868 6.56644 6.72703C6.63834 6.65538 6.88999 6.36878 6.96189 6.22548C7.03379 6.08219 7.14164 6.11801 7.24949 6.15383C7.35733 6.18966 8.00443 6.51208 8.11228 6.58373C8.25607 6.65538 8.32797 6.69121 8.36392 6.72703C8.39987 6.8345 8.39987 7.08528 8.29202 7.37187Z" fill="white"/>
</svg>
