<svg width="127" height="99" viewBox="0 0 127 99" fill="none" xmlns="http://www.w3.org/2000/svg">
<g clip-path="url(#clip0)">
<path d="M81.7178 0.0750879C88.1895 0.0614356 94.6546 0.0136523 101.126 0C102.956 5.65207 104.779 11.2973 106.609 16.9494C100.131 16.9494 93.6455 16.9494 87.167 16.9494C85.3506 11.3246 83.5342 5.69985 81.7178 0.0750879Z" fill="#2F4979"/>
<path d="M0.00667544 81.5862C-0.100963 80.5077 0.686144 79.4223 1.7558 79.2653C2.83891 79.1629 3.92203 79.238 5.01187 79.2175C5.63752 80.849 6.24971 82.4804 6.87536 84.1119C7.49428 82.4804 8.1132 80.849 8.73212 79.2175C9.76142 79.2312 10.7907 79.1834 11.8133 79.238C12.8628 79.3063 13.7508 80.2824 13.7306 81.3541C13.7508 87.2246 13.7306 93.102 13.7373 98.9725C12.4793 98.9725 11.228 98.9725 9.96997 98.9725C9.96997 94.7539 9.96997 90.5353 9.96997 86.3167C9.61341 87.2451 9.25686 88.1666 8.90704 89.095C7.54137 89.095 6.18244 89.095 4.8235 89.095C4.46022 88.1598 4.09694 87.2178 3.75384 86.2758C3.77402 90.508 3.75384 94.7403 3.76057 98.9725C2.50927 98.9725 1.25125 98.9725 -5.19678e-05 98.9725C0.00667544 93.1771 0.00667544 87.3816 0.00667544 81.5862Z" fill="#2F4979"/>
<path d="M18.3053 79.8319C19.052 79.2107 20.0544 79.1765 20.9761 79.2107C23.916 79.2243 26.8558 79.2107 29.789 79.2175C29.789 80.494 29.789 81.7773 29.789 83.0538C26.8289 83.0538 23.8621 83.0538 20.9021 83.0538C20.9021 84.4327 20.9021 85.8048 20.9021 87.1837C23.3509 87.1837 25.7929 87.1837 28.2417 87.1837C27.8582 88.3441 27.4748 89.5046 27.098 90.665C25.0327 90.6582 22.9674 90.665 20.9021 90.665C20.9021 92.1531 20.9021 93.6412 20.9021 95.1361C23.8621 95.1361 26.8289 95.1361 29.789 95.1361C29.789 96.4126 29.789 97.696 29.789 98.9725C26.5464 98.9656 23.297 98.9793 20.0544 98.9656C18.5138 98.9725 17.054 97.6004 17.1415 96.0031C17.1347 91.6002 17.1482 87.2041 17.1347 82.8013C17.0204 81.6954 17.3567 80.4872 18.3053 79.8319Z" fill="#2F4979"/>
<path d="M31.5918 79.2178C36.5163 79.2178 41.4407 79.2178 46.3719 79.2178C45.9885 80.4943 45.605 81.7776 45.2283 83.0541C43.8155 83.0541 42.4095 83.0541 41.0034 83.0541C41.0034 88.358 41.0034 93.6688 41.0034 98.9727C39.7387 98.9727 38.4807 98.9727 37.2226 98.9727C37.2226 93.662 37.2226 88.358 37.2226 83.0541C35.7292 83.0541 34.2357 83.0541 32.7422 83.0541C32.3587 81.7776 31.9753 80.4943 31.5918 79.2178Z" fill="#2F4979"/>
<path d="M51.7539 79.2247C53.2071 79.2179 54.6535 79.2247 56.1066 79.2247C57.849 84.8222 59.5981 90.4196 61.3338 96.0239C61.8451 97.2799 60.9369 98.8568 59.5914 98.9592C57.4319 99.0206 55.2724 98.966 53.1196 98.9865C53.5031 97.7032 53.8798 96.4267 54.2633 95.1502C55.2118 95.1502 56.1604 95.1502 57.1224 95.1502C56.0528 91.4914 54.9831 87.8257 53.9 84.1669C52.3729 89.109 50.8457 94.0512 49.3186 98.9933C47.9799 98.9933 46.6411 98.9933 45.3091 98.9933C47.4551 92.3924 49.6079 85.8051 51.7539 79.2247Z" fill="#2F4979"/>
<path d="M62.3361 79.2178C63.5942 79.2178 64.8522 79.2178 66.1169 79.2178C66.1169 84.5285 66.1169 89.8325 66.1169 95.1364C68.2764 95.1364 70.4359 95.1364 72.5954 95.1364C72.9789 96.4129 73.3556 97.6962 73.7391 98.9727C70.9808 98.9727 68.2226 98.9727 65.4644 98.9727C63.9305 99.1024 62.3832 97.8532 62.3428 96.2491C62.3092 90.5765 62.3429 84.8971 62.3361 79.2178Z" fill="#2F4979"/>
<path d="M75.5556 79.2178C76.8069 79.2178 78.0649 79.2178 79.3229 79.2178C79.3229 80.8151 79.3229 82.4056 79.3229 84.0097C78.0649 84.0097 76.8069 84.0097 75.5556 84.0097C75.5489 82.4124 75.5489 80.8151 75.5556 79.2178Z" fill="#2F4979"/>
<path d="M82.7875 81.0061C82.7269 80.0982 83.4939 79.2449 84.3953 79.2313C85.3641 79.1835 86.3396 79.2313 87.315 79.2176C88.9498 82.8696 90.5846 86.5353 92.226 90.1873C92.226 86.5284 92.226 82.8764 92.226 79.2176C93.4773 79.2176 94.7354 79.2176 95.9867 79.2176C95.9867 85.8049 95.9867 92.3921 95.9867 98.9726C94.7286 98.9726 93.4706 98.9726 92.2193 98.9726C90.3289 94.7267 88.4385 90.4808 86.5548 86.2349C86.5548 90.4808 86.5548 94.7335 86.5548 98.9794C85.3035 98.9794 84.0455 98.9794 82.7942 98.9794C82.7875 92.986 82.774 86.9926 82.7875 81.0061Z" fill="#2F4979"/>
<path d="M101.328 79.4089C101.941 79.1632 102.613 79.2246 103.266 79.2109C105.25 79.2314 107.235 79.1905 109.22 79.2314C110.727 79.2724 112.112 80.6444 112.025 82.2008C112.025 86.8016 112.025 91.4093 112.025 96.0102C112.092 97.5665 110.706 98.9249 109.206 98.9659C106.926 98.9932 104.638 98.9795 102.351 98.9727C100.783 99.0137 99.2967 97.6211 99.3774 95.9965C99.3707 91.3957 99.3639 86.7948 99.3774 82.194C99.337 80.9516 100.198 79.8185 101.328 79.4089ZM103.158 83.0541C103.158 87.0815 103.158 91.109 103.158 95.1364C104.86 95.1364 106.562 95.1364 108.264 95.1364C108.264 91.109 108.264 87.0815 108.264 83.0541C106.562 83.0541 104.86 83.0541 103.158 83.0541Z" fill="#2F4979"/>
<path d="M115.429 79.2178C116.761 79.2178 118.1 79.2178 119.438 79.2178C120.051 80.8219 120.656 82.4329 121.275 84.0371C121.874 82.4329 122.473 80.8219 123.071 79.2178C124.376 79.2178 125.688 79.2178 127 79.2178C125.756 82.5899 124.531 85.962 123.28 89.3273C124.498 92.5425 125.722 95.7576 126.94 98.9727C125.628 98.9727 124.316 98.9727 123.004 98.9727C122.405 97.43 121.82 95.8805 121.228 94.3377C120.717 95.5733 120.394 96.8976 119.761 98.0785C118.786 99.4437 116.936 98.8362 115.537 98.9659C116.761 95.6688 117.985 92.3786 119.21 89.0816C117.952 85.7982 116.694 82.508 115.429 79.2178Z" fill="#2F4979"/>
<path d="M75.5555 85.5386C76.8068 85.5386 78.0648 85.5386 79.3228 85.5386C79.3228 90.0165 79.3228 94.4945 79.3228 98.9725C78.0648 98.9725 76.8068 98.9725 75.5555 98.9725C75.5555 94.4945 75.5488 90.0165 75.5555 85.5386Z" fill="#2F4979"/>
<path d="M27.6195 0.0819141C34.0913 0.0614356 40.5563 0.0204785 47.0281 0C53.4393 19.8232 59.8572 39.6464 66.2617 59.4765C59.79 59.4969 53.3249 59.5379 46.8532 59.5515C43.3953 48.8413 39.9037 38.1378 36.4728 27.4139C33.1494 38.131 29.7588 48.8344 26.4086 59.5515C19.9368 59.5379 13.4718 59.4969 7 59.4765C10.5319 48.2064 14.0705 36.9433 17.6091 25.6732C23.7109 25.6937 29.8194 25.721 35.9278 25.7483C33.1494 17.1951 30.3777 8.64194 27.6195 0.0819141Z" fill="#2F4979"/>
<path d="M55.0908 0.0750879C61.5626 0.0614356 68.0276 0.0136523 74.4994 0C80.9106 19.8232 87.3286 39.6464 93.7263 59.4765C87.2613 59.4969 80.7895 59.5447 74.3177 59.5515C67.9065 39.7283 61.502 19.9051 55.0908 0.0750879Z" fill="#2F4979"/>
<path d="M91.0891 29.0797C97.5676 29.0797 104.053 29.066 110.538 29.0865C113.814 39.2165 117.091 49.3466 120.367 59.4766C113.895 59.4971 107.43 59.538 100.958 59.5517C97.6551 49.4012 94.3923 39.237 91.0891 29.0797Z" fill="#2F4979"/>
</g>
<defs>
<clipPath id="clip0">
<rect width="127" height="99" fill="white"/>
</clipPath>
</defs>
</svg>
